<svg width="123" height="126" viewBox="0 0 123 126" fill="none" xmlns="http://www.w3.org/2000/svg">
<path d="M118.88 33.9839L119.407 34.2743C119.406 34.3499 119.408 34.4254 119.411 34.5008C119.402 34.6321 119.4 34.7637 119.404 34.8952L119.288 35.2494V35.7275L119.288 91.0175L119.288 91.0244C119.289 91.5092 119.15 92.0123 118.848 92.4904C118.544 92.9704 118.076 93.4203 117.451 93.7631C117.448 93.7647 117.446 93.7662 117.443 93.7678L63.7289 122.59L63.3438 122.724H63.2728H62.8649L62.4718 122.833C61.7694 123.028 61.0063 123.028 60.3038 122.833L59.9107 122.724H59.5028H59.4319L59.051 122.591L4.89793 93.3244C4.89617 93.3235 4.8944 93.3225 4.89264 93.3215C4.26631 92.9785 3.7974 92.5279 3.493 92.047C3.1904 91.569 3.0517 91.0659 3.05281 90.5811V90.5742V35.2842V35.0344L3.01151 34.7881C2.99616 34.6966 2.99616 34.6052 3.01151 34.5136L3.05281 34.2673V34.0175V33.9072L3.14038 33.8536L3.28311 33.7663L3.41525 33.6637L3.99254 33.2155L4.4437 32.9089L58.4384 3.54745C58.8415 3.34251 59.2811 3.18108 59.746 3.07086H60.1553H60.3729L60.5882 3.03947C60.9491 2.98684 61.319 2.98684 61.68 3.03947L61.8953 3.07086H62.1128H62.2608C62.5683 3.17793 62.846 3.32 63.0866 3.48671L63.2233 3.58143L63.3696 3.66046L90.3276 18.2206L118.88 33.9839ZM62.3054 11.1743L60.8805 10.405L59.4554 11.1742L18.8554 33.0875L13.9509 35.7347L18.8614 38.3708L31.8389 45.3374L33.2629 46.1019L34.6847 45.3331L75.2122 23.4198L80.0966 20.7788L75.2104 18.141L62.3054 11.1743ZM52.2179 111.461L56.6303 113.816V108.814V68.5975V66.8081L55.0558 65.9578L15.1808 44.4245L10.7553 42.0347V47.0642V87.5342V89.3337L12.3429 90.1809L52.2179 111.461ZM59.4838 60.106L60.8924 60.8469L62.2956 60.096L102.896 38.3727L107.81 35.7432L102.909 33.0894L88.9887 25.5527L87.5592 24.7788L86.1302 25.5537L45.6027 47.5303L40.665 50.2079L45.6363 52.8227L59.4838 60.106ZM109.437 89.9804L111.005 89.1286V87.3442V47.0642V42.0347L106.58 44.4245L66.7048 65.9578L65.1303 66.8081V68.5975V109.004V114.048L69.5623 111.64L109.437 89.9804Z" stroke="#A774BE" stroke-width="6"/>
</svg>
